<svg width="101" height="101" viewBox="0 0 101 101" fill="none" xmlns="http://www.w3.org/2000/svg">
<path d="M28.3333 56.0416V56.0979" stroke="white" stroke-width="3" stroke-linecap="round" stroke-linejoin="round"/>
<path d="M50.4999 78.2084V78.2646" stroke="white" stroke-width="3" stroke-linecap="round" stroke-linejoin="round"/>
<path d="M50.4999 50.5V50.5563" stroke="white" stroke-width="3" stroke-linecap="round" stroke-linejoin="round"/>
<path d="M72.6665 61.5834V61.6396" stroke="white" stroke-width="3" stroke-linecap="round" stroke-linejoin="round"/>
<path d="M44.9583 28.3334V28.3896" stroke="white" stroke-width="3" stroke-linecap="round" stroke-linejoin="round"/>
<path d="M56.8619 3.26307L71.6416 9.38107C68.7124 13.2349 67.1252 17.9415 67.1225 22.7822C67.1198 27.6228 68.7017 32.3312 71.6265 36.1883C74.5514 40.0454 78.6584 42.839 83.3202 44.1425C87.982 45.446 92.9424 45.1876 97.4436 43.4069L97.7373 44.1384C99.4245 48.2118 99.4245 52.7886 97.7373 56.8621C94.9831 61.2178 93.0934 64.6426 92.0626 67.1252C91.0152 69.6522 89.7961 73.742 88.4051 79.4056C86.7165 83.4784 83.4793 86.7136 79.4054 88.3997C73.5978 89.8572 69.5025 91.0763 67.1251 92.0627C64.4928 93.1544 61.0736 95.0441 56.8619 97.7374C52.7885 99.4246 48.2117 99.4246 44.1383 97.7374C39.6939 94.9499 36.2747 93.0602 33.8751 92.0627C31.265 90.9821 27.1697 89.7629 21.5948 88.4052C17.522 86.7166 14.2867 83.4794 12.6007 79.4056C11.1321 73.5757 9.91295 69.486 8.93761 67.1252C7.84036 64.4708 5.94511 61.0516 3.26295 56.8621C1.57576 52.7886 1.57576 48.2118 3.26295 44.1384C5.92295 40.0154 7.80711 36.5962 8.93761 33.8752C9.88524 31.5865 11.1044 27.4912 12.5951 21.5949C14.2837 17.5221 17.5209 14.2868 21.5948 12.6008C27.3138 11.1821 31.4035 9.96294 33.8751 8.93773C36.4132 7.88482 39.8324 5.99511 44.1383 3.26307C48.2117 1.57588 52.7885 1.57588 56.8619 3.26307Z" stroke="white" stroke-width="3" stroke-linecap="round" stroke-linejoin="round"/>
</svg>
