<svg width="58" height="62" viewBox="0 0 58 62" fill="none" xmlns="http://www.w3.org/2000/svg">
<path d="M21.6667 51.0714C8.33333 55.0714 8.33333 44.4048 3 43.0714M40.3333 59.0714V48.7514C40.4334 47.4799 40.2616 46.2016 39.8294 45.0016C39.3972 43.8015 38.7145 42.7072 37.8267 41.7914C46.2 40.8581 55 37.6848 55 23.1248C54.9993 19.4017 53.5672 15.8213 51 13.1248C52.2156 9.86746 52.1297 6.26705 50.76 3.07145C50.76 3.07145 47.6133 2.13811 40.3333 7.01811C34.2214 5.36164 27.7786 5.36164 21.6667 7.01811C14.3867 2.13811 11.24 3.07145 11.24 3.07145C9.87034 6.26705 9.78438 9.86746 11 13.1248C8.41367 15.8413 6.98006 19.454 7 23.2048C7 37.6581 15.8 40.8314 24.1733 41.8714C23.296 42.778 22.6194 43.8592 22.1875 45.0446C21.7556 46.2299 21.5782 47.493 21.6667 48.7514V59.0714" stroke="white" stroke-width="5" stroke-linecap="round" stroke-linejoin="round"/>
</svg>
