<svg width="59" height="59" viewBox="0 0 59 59" fill="none" xmlns="http://www.w3.org/2000/svg">
<path d="M43 3H16.3333C8.96954 3 3 8.96954 3 16.3333V43C3 50.3638 8.96954 56.3333 16.3333 56.3333H43C50.3638 56.3333 56.3333 50.3638 56.3333 43V16.3333C56.3333 8.96954 50.3638 3 43 3Z" stroke="white" stroke-width="5" stroke-linecap="round" stroke-linejoin="round"/>
<path d="M40.3333 27.9868C40.6624 30.2061 40.2833 32.4727 39.25 34.4642C38.2167 36.4557 36.5817 38.0706 34.5777 39.0793C32.5736 40.088 30.3025 40.4391 28.0874 40.0826C25.8723 39.7262 23.826 38.6804 22.2396 37.0939C20.6531 35.5075 19.6073 33.4612 19.2508 31.2461C18.8944 29.031 19.2455 26.7599 20.2542 24.7558C21.2629 22.7518 22.8778 21.1168 24.8693 20.0835C26.8607 19.0501 29.1273 18.6711 31.3467 19.0002C33.6105 19.3358 35.7063 20.3907 37.3245 22.009C38.9428 23.6272 39.9976 25.723 40.3333 27.9868Z" stroke="white" stroke-width="5" stroke-linecap="round" stroke-linejoin="round"/>
<path d="M44.3333 15H44.36" stroke="white" stroke-width="5" stroke-linecap="round" stroke-linejoin="round"/>
</svg>
