<svg width="60" height="60" viewBox="0 0 60 60" fill="none" xmlns="http://www.w3.org/2000/svg">
<path d="M18 27V42" stroke="white" stroke-width="5" stroke-linecap="round" stroke-linejoin="round"/>
<path d="M18 18V18.03" stroke="white" stroke-width="5" stroke-linecap="round" stroke-linejoin="round"/>
<path d="M30 42V27" stroke="white" stroke-width="5" stroke-linecap="round" stroke-linejoin="round"/>
<path d="M42 42V33C42 31.4087 41.3679 29.8826 40.2426 28.7574C39.1174 27.6321 37.5913 27 36 27C34.4087 27 32.8826 27.6321 31.7574 28.7574C30.6321 29.8826 30 31.4087 30 33" stroke="white" stroke-width="5" stroke-linecap="round" stroke-linejoin="round"/>
<path d="M3 15C3 11.8174 4.26428 8.76515 6.51472 6.51472C8.76515 4.26428 11.8174 3 15 3H45C48.1826 3 51.2348 4.26428 53.4853 6.51472C55.7357 8.76515 57 11.8174 57 15V45C57 48.1826 55.7357 51.2348 53.4853 53.4853C51.2348 55.7357 48.1826 57 45 57H15C11.8174 57 8.76515 55.7357 6.51472 53.4853C4.26428 51.2348 3 48.1826 3 45V15Z" stroke="white" stroke-width="5" stroke-linecap="round" stroke-linejoin="round"/>
</svg>
