<svg width="41" height="44" viewBox="0 0 41 44" fill="none" xmlns="http://www.w3.org/2000/svg">
<path d="M39.88 21.0998L21.5 39.4798C19.2483 41.7315 16.1943 42.9965 13.01 42.9965C9.8256 42.9965 6.77166 41.7315 4.51997 39.4798C2.26828 37.2282 1.0033 34.1742 1.0033 30.9898C1.0033 27.8055 2.26828 24.7515 4.51997 22.4998L22.9 4.11984C24.4011 2.61871 26.4371 1.77539 28.56 1.77539C30.6829 1.77539 32.7188 2.61871 34.22 4.11984C35.7211 5.62096 36.5644 7.65693 36.5644 9.77984C36.5644 11.9028 35.7211 13.9387 34.22 15.4398L15.82 33.8198C15.0694 34.5704 14.0514 34.9921 12.99 34.9921C11.9285 34.9921 10.9105 34.5704 10.16 33.8198C9.40941 33.0693 8.98774 32.0513 8.98774 30.9898C8.98774 29.9284 9.40941 28.9104 10.16 28.1598L27.14 11.1998" stroke="white" stroke-width="2" stroke-linecap="round" stroke-linejoin="round"/>
</svg>
